<svg width="256" height="256" xmlns="http://www.w3.org/2000/svg">
<g><path d="M 196 227 Z" fill="#000" /><path d="M 189 215 190 216 190 215 Z" fill="#000" /><path d="M 70 197 70 199 71 200 71 201 73 203 73 204 74 205 74 206 75 207 75 208 78 211 78 212 79 213 79 214 80 215 80 216 83 219 83 220 85 222 85 223 86 224 86 225 87 226 87 227 89 229 89 230 90 231 90 232 91 233 91 234 94 234 95 235 98 235 99 236 101 236 102 237 105 237 106 238 109 238 110 239 113 239 114 240 117 240 118 241 120 241 121 242 124 242 125 243 129 243 130 244 132 244 133 245 136 245 137 246 138 246 139 247 142 247 143 248 145 248 146 249 150 249 151 250 154 250 155 251 185 221 185 220 184 219 179 219 178 218 174 218 173 217 170 217 169 216 166 216 165 215 159 215 158 214 152 214 151 213 149 213 148 212 145 212 144 211 143 212 142 211 139 211 138 210 133 210 132 209 127 209 126 208 124 208 123 207 118 207 117 206 114 206 113 205 107 205 106 204 103 204 102 203 99 203 98 202 93 202 92 201 86 201 85 200 82 200 81 199 78 199 77 198 73 198 72 197 Z" fill="#000" /><path d="M 126 193 126 195 Z" fill="#000" /><path d="M 169 185 Z" fill="#000" /><path d="M 167 182 167 183 Z" fill="#000" /><path d="M 156 167 156 168 159 171 159 172 161 174 161 175 164 178 164 179 165 180 166 180 162 176 162 174 161 174 160 173 160 171 159 171 157 169 157 168 Z" fill="#000" /><path d="M 154 164 155 165 Z" fill="#000" /><path d="M 129 136 129 159 130 160 130 182 131 183 131 204 132 205 132 206 135 206 136 207 140 207 141 208 145 208 146 209 150 209 151 210 156 210 157 211 160 211 161 212 165 212 166 213 170 213 171 214 177 214 178 215 181 215 182 216 184 216 184 214 182 212 182 211 180 209 180 208 176 204 176 203 175 202 175 201 173 199 173 198 171 196 171 195 169 193 169 192 167 190 167 189 164 186 164 185 162 183 162 182 159 179 159 178 156 175 156 174 155 173 155 172 152 169 152 168 151 167 151 166 148 163 148 162 146 160 146 159 143 156 143 155 142 154 142 153 139 150 139 149 137 147 137 146 135 144 135 143 133 141 133 140 130 137 130 136 Z" fill="#000" /><path d="M 134 131 134 132 136 134 137 134 140 137 141 137 144 140 145 140 146 141 147 141 150 144 151 144 152 145 153 145 156 148 157 148 159 150 160 150 162 152 163 152 166 155 167 155 169 157 170 157 172 159 173 159 175 161 176 161 179 164 180 164 181 165 182 165 185 168 186 168 188 170 189 170 192 173 193 173 195 175 196 175 198 177 199 177 201 179 202 179 205 182 206 182 208 184 209 184 211 186 212 186 213 187 213 182 212 181 212 178 211 177 211 171 210 170 210 166 209 165 209 162 208 161 208 157 207 156 207 152 206 151 206 146 205 145 205 142 204 141 204 137 203 136 203 134 202 134 201 133 179 133 178 132 177 133 176 132 138 132 137 131 Z" fill="#000" /><path d="M 74 130 75 130 Z" fill="#000" /><path d="M 115 117 Z" fill="#000" /><path d="M 113 113 113 114 Z" fill="#000" /><path d="M 106 104 107 105 107 107 108 107 110 109 110 111 111 111 111 110 109 108 109 107 Z" fill="#000" /><path d="M 105 102 Z" fill="#000" /><path d="M 102 99 102 100 103 100 103 99 Z" fill="#000" /><path d="M 99 95 100 96 101 96 100 95 Z" fill="#000" /><path d="M 93 85 94 86 94 87 95 88 95 89 97 91 97 92 98 93 99 93 96 90 96 89 94 87 94 86 Z" fill="#000" /><path d="M 85 73 85 74 87 76 87 77 88 78 88 79 89 79 90 80 90 81 91 82 91 81 87 77 87 76 86 75 86 74 Z" fill="#000" /><path d="M 196 72 195 73 195 77 196 78 196 82 197 83 197 87 198 88 198 91 199 92 199 96 200 97 200 101 201 102 201 107 202 108 202 112 203 113 203 117 204 118 204 121 205 122 205 125 206 126 206 129 207 130 207 137 208 138 208 142 209 143 209 146 210 147 210 150 211 151 211 157 212 158 212 162 213 163 213 167 214 168 214 171 215 172 215 178 216 179 216 183 217 184 217 187 219 187 248 158 248 155 247 154 247 151 246 150 246 149 245 148 245 143 244 142 244 140 243 139 243 136 242 135 242 133 241 132 241 129 240 128 240 124 239 123 239 120 238 119 238 117 237 116 237 114 236 113 236 109 235 108 235 105 234 104 234 102 233 101 233 98 232 97 232 95 231 94 231 93 230 92 228 92 225 89 224 89 223 88 222 88 221 87 220 87 218 85 217 85 216 84 215 84 213 82 212 82 210 80 209 80 208 79 207 79 206 78 205 78 203 76 202 76 200 74 199 74 198 73 197 73 Z" fill="#000" /><path d="M 39 71 39 72 40 73 40 78 41 79 41 84 42 85 42 88 43 89 43 93 44 94 44 97 45 98 45 104 46 105 46 110 47 111 47 114 48 115 48 119 49 120 49 123 50 124 62 124 63 125 64 124 65 124 66 125 67 124 68 125 87 125 88 126 89 125 90 125 91 126 111 126 112 127 118 127 119 126 120 126 119 125 118 125 116 123 115 123 112 120 111 120 109 118 108 118 106 116 105 116 102 113 101 113 100 112 99 112 97 110 96 110 93 107 92 107 90 105 89 105 87 103 86 103 84 101 83 101 81 99 80 99 77 96 76 96 73 93 72 93 71 92 70 92 67 89 66 89 64 87 63 87 60 84 58 84 57 83 57 82 56 82 55 81 54 81 52 79 51 79 48 76 47 76 44 73 43 73 42 72 41 72 40 71 Z" fill="#000" /><path d="M 83 70 83 71 Z" fill="#000" /><path d="M 34 70 5 99 5 100 4 101 5 102 5 105 6 106 6 109 7 110 7 112 8 113 8 116 9 117 9 120 10 121 10 123 11 124 11 126 12 127 12 131 13 132 13 135 14 136 14 138 15 139 15 141 16 142 16 146 17 147 17 150 18 151 18 154 19 155 19 157 20 158 20 162 21 163 21 164 22 165 23 165 24 166 25 166 27 168 28 168 29 169 30 169 31 170 32 170 34 172 35 172 38 175 39 175 40 176 41 176 42 177 43 177 44 178 45 178 47 180 48 180 50 182 51 182 52 183 53 183 55 185 58 185 57 184 57 181 56 180 56 176 55 175 55 172 54 171 54 164 53 163 53 158 52 157 52 155 51 154 51 152 50 151 50 143 49 142 49 138 48 137 48 134 47 133 47 130 46 129 46 123 45 122 45 118 44 117 44 113 43 112 43 109 42 108 42 105 41 104 41 98 40 97 40 92 39 91 39 88 38 87 38 84 37 83 37 77 36 76 36 73 35 72 35 70 Z" fill="#000" /><path d="M 80 66 80 67 81 67 Z" fill="#000" /><path d="M 72 56 73 57 Z" fill="#000" /><path d="M 67 48 68 49 68 50 68 49 Z" fill="#000" /><path d="M 65 45 65 46 Z" fill="#000" /><path d="M 70 41 69 42 69 43 70 44 70 45 71 46 71 47 72 47 73 48 73 49 74 50 74 51 77 54 77 55 79 57 79 58 81 60 81 61 85 65 85 66 86 67 86 68 88 70 88 71 91 74 91 75 93 77 93 78 95 80 95 81 97 83 97 84 99 86 99 87 102 90 102 91 104 93 104 94 106 96 106 97 109 100 109 101 111 103 111 104 113 106 113 107 115 109 115 110 118 113 118 114 119 115 119 116 122 119 122 120 124 122 124 105 123 104 123 73 122 72 122 52 119 52 118 51 115 51 114 50 110 50 109 49 106 49 105 48 100 48 99 47 96 47 95 46 91 46 90 45 86 45 85 44 79 44 78 43 75 43 74 42 71 42 Z" fill="#000" /><path d="M 97 7 94 10 94 11 93 12 92 12 90 14 90 15 89 16 88 16 86 18 86 19 85 20 84 20 78 26 78 27 77 28 76 28 75 29 75 30 74 31 73 31 71 33 71 34 70 35 69 35 68 36 68 38 71 38 72 39 77 39 78 40 82 40 83 41 86 41 87 42 92 42 93 43 98 43 99 44 104 44 105 45 107 45 108 46 111 46 112 47 113 46 114 47 117 47 118 48 124 48 125 49 130 49 131 50 134 50 135 51 138 51 139 52 142 52 143 53 148 53 149 54 153 54 154 55 159 55 160 56 163 56 164 57 168 57 169 58 173 58 174 59 178 59 179 60 183 60 183 59 182 58 182 57 181 56 181 55 179 53 179 52 178 51 178 50 176 48 176 47 175 46 175 45 173 43 173 42 172 41 172 40 171 39 171 38 169 36 169 35 167 33 167 32 166 31 166 30 164 28 164 27 163 26 163 25 161 23 158 23 157 22 155 22 154 21 152 21 151 20 147 20 146 19 143 19 142 18 139 18 138 17 136 17 135 16 133 16 132 15 128 15 127 14 124 14 123 13 120 13 119 12 118 12 117 11 114 11 113 10 108 10 107 9 104 9 103 8 102 8 101 7 Z" fill="#000" /></g>
</svg>
